# xmcd CD database file
# Copyright (C) 1993-1998 Ti Kan
#
# Track frame offsets:
# 150
# 59400
# 65025
# 71550
# 124575
# 159450
# 173475
# 176175
# 184875
# 199425
# 257700
# 259950
# 276900
# 329850
#
# Disc length: 4436 seconds
# Revision: 0
# Processed by: cddbd v1.4b41PL1 Copyright (c) Steve Scherf et al.
# Submitted via: CDSpectrumPro v3.2.327
#
DISCID=e511520e
DTITLE=Carleton Sheets - No Down Payment CD1
DYEAR=1900
DGENRE=
TTITLE0=Laying The Foundation For Your Financial Success
TTITLE1=Start A New Home Business
TTITLE2=You Must Make A Commitment
TTITLE3=Goal Setting
TTITLE4=Planning and Time Management
TTITLE5=Profile Of An Ideal Investor and Chapter Summary
TTITLE6=Testimonials
TTITLE7=Creating Wealth Out Of Thin Air
TTITLE8=Saving Your Way To Prosperity and Other Myths
TTITLE9=Fundamental Benefits From Investing
TTITLE10=Real Estate In Perspective
TTITLE11=Some Conclusions About The Frture
TTITLE12=You Can Create Wealth Out Of Thin Air
TTITLE13=Testimonials
EXTD=
EXTT0=
EXTT1=
EXTT2=
EXTT3=
EXTT4=
EXTT5=
EXTT6=
EXTT7=
EXTT8=
EXTT9=
EXTT10=
EXTT11=
EXTT12=
EXTT13=
PLAYORDER=
